<svg width="1351" height="191" viewBox="0 0 1351 191" fill="none" xmlns="http://www.w3.org/2000/svg">
<g filter="url(#filter0_f)">
<g filter="url(#filter1_i)">
<path d="M7 142.118L27.4463 109.659C29.4962 106.405 33.7875 105.414 37.0567 107.44L71.8835 129.023C75.1722 131.061 79.4905 130.045 81.525 126.754L117.711 68.2225C120.006 64.5114 125.099 63.7806 128.344 66.6968L132.962 70.8462C136.149 73.7105 141.139 73.0641 143.491 69.4822L168 32.164" stroke="#D0D504" stroke-width="11" stroke-linecap="round" stroke-linejoin="round"/>
<path d="M7 142.118L27.4463 109.659C29.4962 106.405 33.7875 105.414 37.0567 107.44L71.8835 129.023C75.1722 131.061 79.4905 130.045 81.525 126.754L117.711 68.2225C120.006 64.5114 125.099 63.7806 128.344 66.6968L132.962 70.8462C136.149 73.7105 141.139 73.0641 143.491 69.4822L168 32.164" stroke="url(#paint0_linear)" stroke-width="11" stroke-linecap="round" stroke-linejoin="round"/>
</g>
<g style="mix-blend-mode:lighten" filter="url(#filter2_d)">
<path d="M217.701 36.88V67.431C217.701 71.0843 217.473 74.5093 217.016 77.706H217.838C220.213 73.9613 223.409 71.13 227.428 69.212C231.538 67.294 235.968 66.335 240.717 66.335C249.668 66.335 256.381 68.4813 260.856 72.774C265.331 76.9753 267.569 83.7797 267.569 93.187V141H255.65V94.009C255.65 82.227 250.17 76.336 239.21 76.336C230.99 76.336 225.327 78.665 222.222 83.323C219.208 87.8897 217.701 94.4657 217.701 103.051V141H205.645V36.88H217.701ZM287.045 67.568H299.923L315.815 109.353C317.185 113.006 318.418 116.523 319.514 119.902C320.61 123.19 321.432 126.341 321.98 129.355H322.528C323.076 127.072 323.944 124.103 325.131 120.45C326.319 116.705 327.552 112.961 328.83 109.216L343.763 67.568H356.778L325.131 151.138C322.574 158.079 319.24 163.605 315.13 167.715C311.112 171.825 305.54 173.88 298.416 173.88C296.224 173.88 294.306 173.743 292.662 173.469C291.018 173.286 289.603 173.058 288.415 172.784V163.194C289.42 163.377 290.607 163.559 291.977 163.742C293.439 163.925 294.946 164.016 296.498 164.016C300.7 164.016 304.079 162.829 306.636 160.454C309.285 158.079 311.34 154.928 312.801 151.001L316.637 141.274L287.045 67.568ZM411.546 66.198C420.588 66.198 427.849 69.349 433.329 75.651C438.901 81.953 441.686 91.4517 441.686 104.147C441.686 116.66 438.901 126.158 433.329 132.643C427.849 139.128 420.543 142.37 411.409 142.37C405.747 142.37 401.043 141.32 397.298 139.219C393.645 137.027 390.768 134.515 388.667 131.684H387.845C388.028 133.237 388.211 135.2 388.393 137.575C388.576 139.95 388.667 142.005 388.667 143.74V173.88H376.611V67.568H386.475L388.119 77.569H388.667C390.859 74.3723 393.736 71.678 397.298 69.486C400.86 67.294 405.61 66.198 411.546 66.198ZM409.354 76.336C401.865 76.336 396.568 78.4367 393.462 82.638C390.448 86.8393 388.85 93.2327 388.667 101.818V104.147C388.667 113.189 390.129 120.176 393.051 125.108C396.065 129.949 401.591 132.369 409.628 132.369C414.104 132.369 417.757 131.136 420.588 128.67C423.511 126.204 425.657 122.87 427.027 118.669C428.489 114.376 429.219 109.49 429.219 104.01C429.219 95.6073 427.575 88.8943 424.287 83.871C421.091 78.8477 416.113 76.336 409.354 76.336ZM497.477 66.198C503.779 66.198 509.168 67.568 513.643 70.308C518.21 73.048 521.681 76.9297 524.055 81.953C526.521 86.885 527.754 92.6847 527.754 99.352V106.613H477.475C477.658 114.924 479.759 121.272 483.777 125.656C487.887 129.949 493.596 132.095 500.902 132.095C505.56 132.095 509.67 131.684 513.232 130.862C516.886 129.949 520.63 128.67 524.466 127.026V137.575C520.722 139.219 517.023 140.406 513.369 141.137C509.716 141.959 505.378 142.37 500.354 142.37C493.413 142.37 487.248 140.954 481.859 138.123C476.562 135.292 472.406 131.09 469.392 125.519C466.47 119.856 465.008 112.961 465.008 104.832C465.008 96.7947 466.333 89.899 468.981 84.145C471.721 78.391 475.512 73.9613 480.352 70.856C485.284 67.7507 490.993 66.198 497.477 66.198ZM497.34 76.062C491.586 76.062 487.02 77.9343 483.64 81.679C480.352 85.3323 478.389 90.447 477.749 97.023H515.15C515.059 90.8123 513.598 85.789 510.766 81.953C507.935 78.0257 503.46 76.062 497.34 76.062ZM588.919 66.198C590.289 66.198 591.75 66.2893 593.303 66.472C594.947 66.5633 596.362 66.746 597.55 67.02L596.043 78.117C594.855 77.843 593.531 77.6147 592.07 77.432C590.7 77.2493 589.375 77.158 588.097 77.158C584.352 77.158 580.836 78.2083 577.548 80.309C574.26 82.3183 571.611 85.1953 569.602 88.94C567.684 92.5933 566.725 96.886 566.725 101.818V141H554.669V67.568H564.533L565.903 80.994H566.451C568.825 76.9753 571.885 73.5047 575.63 70.582C579.374 67.6593 583.804 66.198 588.919 66.198ZM654.416 66.198C663.458 66.198 670.719 69.349 676.199 75.651C681.771 81.953 684.556 91.4517 684.556 104.147C684.556 116.66 681.771 126.158 676.199 132.643C670.719 139.128 663.413 142.37 654.279 142.37C648.617 142.37 643.913 141.32 640.168 139.219C636.515 137.027 633.638 134.515 631.537 131.684H630.715C630.898 133.237 631.081 135.2 631.263 137.575C631.446 139.95 631.537 142.005 631.537 143.74V173.88H619.481V67.568H629.345L630.989 77.569H631.537C633.729 74.3723 636.606 71.678 640.168 69.486C643.73 67.294 648.48 66.198 654.416 66.198ZM652.224 76.336C644.735 76.336 639.438 78.4367 636.332 82.638C633.318 86.8393 631.72 93.2327 631.537 101.818V104.147C631.537 113.189 632.999 120.176 635.921 125.108C638.935 129.949 644.461 132.369 652.498 132.369C656.974 132.369 660.627 131.136 663.458 128.67C666.381 126.204 668.527 122.87 669.897 118.669C671.359 114.376 672.089 109.49 672.089 104.01C672.089 95.6073 670.445 88.8943 667.157 83.871C663.961 78.8477 658.983 76.336 652.224 76.336ZM775.83 104.147C775.83 116.294 772.725 125.702 766.514 132.369C760.395 139.036 752.084 142.37 741.58 142.37C735.096 142.37 729.296 140.909 724.181 137.986C719.158 134.972 715.185 130.634 712.262 124.971C709.34 119.217 707.878 112.276 707.878 104.147C707.878 91.9997 710.938 82.638 717.057 76.062C723.177 69.486 731.488 66.198 741.991 66.198C748.659 66.198 754.504 67.705 759.527 70.719C764.642 73.6417 768.615 77.9343 771.446 83.597C774.369 89.1683 775.83 96.0183 775.83 104.147ZM720.345 104.147C720.345 112.824 722.035 119.719 725.414 124.834C728.885 129.857 734.365 132.369 741.854 132.369C749.252 132.369 754.687 129.857 758.157 124.834C761.628 119.719 763.363 112.824 763.363 104.147C763.363 95.4703 761.628 88.666 758.157 83.734C754.687 78.802 749.207 76.336 741.717 76.336C734.228 76.336 728.794 78.802 725.414 83.734C722.035 88.666 720.345 95.4703 720.345 104.147ZM837.408 66.198C838.778 66.198 840.239 66.2893 841.792 66.472C843.436 66.5633 844.851 66.746 846.039 67.02L844.532 78.117C843.344 77.843 842.02 77.6147 840.559 77.432C839.189 77.2493 837.864 77.158 836.586 77.158C832.841 77.158 829.325 78.2083 826.037 80.309C822.749 82.3183 820.1 85.1953 818.091 88.94C816.173 92.5933 815.214 96.886 815.214 101.818V141H803.158V67.568H813.022L814.392 80.994H814.94C817.314 76.9753 820.374 73.5047 824.119 70.582C827.863 67.6593 832.293 66.198 837.408 66.198ZM892.493 132.506C894.32 132.506 896.192 132.369 898.11 132.095C900.028 131.73 901.581 131.364 902.768 130.999V140.178C901.49 140.817 899.663 141.32 897.288 141.685C894.914 142.142 892.63 142.37 890.438 142.37C886.602 142.37 883.04 141.731 879.752 140.452C876.556 139.082 873.953 136.753 871.943 133.465C869.934 130.177 868.929 125.565 868.929 119.628V76.884H858.517V71.13L869.066 66.335L873.861 50.717H880.985V67.568H902.22V76.884H880.985V119.354C880.985 123.829 882.036 127.163 884.136 129.355C886.328 131.456 889.114 132.506 892.493 132.506ZM959.531 76.884H941.036V141H928.98V76.884H916.102V71.267L928.98 67.157V62.91C928.98 53.4113 931.081 46.607 935.282 42.497C939.484 38.2957 945.329 36.195 952.818 36.195C955.741 36.195 958.39 36.469 960.764 37.017C963.23 37.4737 965.331 38.0217 967.066 38.661L963.915 48.114C962.454 47.6573 960.764 47.2007 958.846 46.744C956.928 46.2873 954.965 46.059 952.955 46.059C948.937 46.059 945.923 47.429 943.913 50.169C941.995 52.8177 941.036 57.019 941.036 62.773V67.568H959.531V76.884ZM1044.85 104.147C1044.85 116.294 1041.74 125.702 1035.53 132.369C1029.41 139.036 1021.1 142.37 1010.6 142.37C1004.11 142.37 998.314 140.909 993.199 137.986C988.176 134.972 984.203 130.634 981.28 124.971C978.357 119.217 976.896 112.276 976.896 104.147C976.896 91.9997 979.956 82.638 986.075 76.062C992.194 69.486 1000.51 66.198 1011.01 66.198C1017.68 66.198 1023.52 67.705 1028.55 70.719C1033.66 73.6417 1037.63 77.9343 1040.46 83.597C1043.39 89.1683 1044.85 96.0183 1044.85 104.147ZM989.363 104.147C989.363 112.824 991.053 119.719 994.432 124.834C997.903 129.857 1003.38 132.369 1010.87 132.369C1018.27 132.369 1023.7 129.857 1027.18 124.834C1030.65 119.719 1032.38 112.824 1032.38 104.147C1032.38 95.4703 1030.65 88.666 1027.18 83.734C1023.7 78.802 1018.22 76.336 1010.74 76.336C1003.25 76.336 997.811 78.802 994.432 83.734C991.053 88.666 989.363 95.4703 989.363 104.147ZM1084.23 141H1072.18V36.88H1084.23V141ZM1125.99 134.15C1125.99 132.232 1126.63 130.634 1127.91 129.355C1129.28 127.985 1130.92 127.3 1132.84 127.3C1134.76 127.3 1136.36 127.985 1137.64 129.355C1139.01 130.634 1139.69 132.232 1139.69 134.15C1139.69 136.068 1139.01 137.712 1137.64 139.082C1136.36 140.361 1134.76 141 1132.84 141C1130.92 141 1129.28 140.361 1127.91 139.082C1126.63 137.712 1125.99 136.068 1125.99 134.15ZM1165.69 40.031C1167.52 40.031 1169.11 40.6703 1170.48 41.949C1171.94 43.1363 1172.68 45.0543 1172.68 47.703C1172.68 50.2603 1171.94 52.1783 1170.48 53.457C1169.11 54.7357 1167.52 55.375 1165.69 55.375C1163.68 55.375 1161.99 54.7357 1160.62 53.457C1159.25 52.1783 1158.56 50.2603 1158.56 47.703C1158.56 45.0543 1159.25 43.1363 1160.62 41.949C1161.99 40.6703 1163.68 40.031 1165.69 40.031ZM1171.58 67.568V141H1159.52V67.568H1171.58ZM1266.91 104.147C1266.91 116.294 1263.8 125.702 1257.59 132.369C1251.47 139.036 1243.16 142.37 1232.66 142.37C1226.17 142.37 1220.37 140.909 1215.26 137.986C1210.23 134.972 1206.26 130.634 1203.34 124.971C1200.42 119.217 1198.95 112.276 1198.95 104.147C1198.95 91.9997 1202.01 82.638 1208.13 76.062C1214.25 69.486 1222.56 66.198 1233.07 66.198C1239.73 66.198 1245.58 67.705 1250.6 70.719C1255.72 73.6417 1259.69 77.9343 1262.52 83.597C1265.44 89.1683 1266.91 96.0183 1266.91 104.147ZM1211.42 104.147C1211.42 112.824 1213.11 119.719 1216.49 124.834C1219.96 129.857 1225.44 132.369 1232.93 132.369C1240.33 132.369 1245.76 129.857 1249.23 124.834C1252.7 119.719 1254.44 112.824 1254.44 104.147C1254.44 95.4703 1252.7 88.666 1249.23 83.734C1245.76 78.802 1240.28 76.336 1232.79 76.336C1225.3 76.336 1219.87 78.802 1216.49 83.734C1213.11 88.666 1211.42 95.4703 1211.42 104.147Z" fill="url(#paint1_linear)"/>
</g>
</g>
<defs>
<filter id="filter0_f" x="0.499268" y="25.6633" width="1267.41" height="149.217" filterUnits="userSpaceOnUse" color-interpolation-filters="sRGB">
<feFlood flood-opacity="0" result="BackgroundImageFix"/>
<feBlend mode="normal" in="SourceGraphic" in2="BackgroundImageFix" result="shape"/>
<feGaussianBlur stdDeviation="0.5" result="effect1_foregroundBlur"/>
</filter>
<filter id="filter1_i" x="1.49927" y="26.6633" width="172.001" height="124.956" filterUnits="userSpaceOnUse" color-interpolation-filters="sRGB">
<feFlood flood-opacity="0" result="BackgroundImageFix"/>
<feBlend mode="normal" in="SourceGraphic" in2="BackgroundImageFix" result="shape"/>
<feColorMatrix in="SourceAlpha" type="matrix" values="0 0 0 0 0 0 0 0 0 0 0 0 0 0 0 0 0 0 127 0" result="hardAlpha"/>
<feOffset dy="4"/>
<feGaussianBlur stdDeviation="2"/>
<feComposite in2="hardAlpha" operator="arithmetic" k2="-1" k3="1"/>
<feColorMatrix type="matrix" values="0 0 0 0 0 0 0 0 0 0 0 0 0 0 0 0 0 0 0.25 0"/>
<feBlend mode="normal" in2="shape" result="effect1_innerShadow"/>
</filter>
<filter id="filter2_d" x="192.645" y="27.195" width="1087.26" height="163.685" filterUnits="userSpaceOnUse" color-interpolation-filters="sRGB">
<feFlood flood-opacity="0" result="BackgroundImageFix"/>
<feColorMatrix in="SourceAlpha" type="matrix" values="0 0 0 0 0 0 0 0 0 0 0 0 0 0 0 0 0 0 127 0"/>
<feOffset dy="4"/>
<feGaussianBlur stdDeviation="6.5"/>
<feColorMatrix type="matrix" values="0 0 0 0 0 0 0 0 0 0 0 0 0 0 0 0 0 0 0.71 0"/>
<feBlend mode="normal" in2="BackgroundImageFix" result="effect1_dropShadow"/>
<feBlend mode="normal" in="SourceGraphic" in2="effect1_dropShadow" result="shape"/>
</filter>
<linearGradient id="paint0_linear" x1="87.5" y1="32.164" x2="87.5" y2="142.118" gradientUnits="userSpaceOnUse">
<stop stop-color="#FFFDC8"/>
<stop offset="1" stop-color="white" stop-opacity="0"/>
</linearGradient>
<linearGradient id="paint1_linear" x1="772.5" y1="0" x2="772.5" y2="189" gradientUnits="userSpaceOnUse">
<stop offset="0.389109" stop-color="white"/>
<stop offset="1" stop-color="#E4E4E4"/>
</linearGradient>
</defs>
</svg>
